<svg xmlns="http://www.w3.org/2000/svg" xmlns:xlink="http://www.w3.org/1999/xlink" width="1080" zoomAndPan="magnify" viewBox="0 0 810 809.999993" height="1080" preserveAspectRatio="xMidYMid meet" version="1.0"><defs><clipPath id="7764170cbf"><path d="M 389 112 L 622 112 L 622 344.742188 L 389 344.742188 Z M 389 112 " clip-rule="nonzero"/></clipPath><clipPath id="803075eeaf"><path d="M 621.511719 228.28125 C 621.511719 292.464844 569.476562 344.503906 505.292969 344.503906 C 441.105469 344.503906 389.070312 292.464844 389.070312 228.28125 C 389.070312 164.097656 441.105469 112.058594 505.292969 112.058594 C 569.476562 112.058594 621.511719 164.097656 621.511719 228.28125 " clip-rule="nonzero"/></clipPath><clipPath id="3d96d81d16"><path d="M 0.0390625 0 L 232.601562 0 L 232.601562 232.640625 L 0.0390625 232.640625 Z M 0.0390625 0 " clip-rule="nonzero"/></clipPath><clipPath id="691561ba56"><path d="M 232.511719 116.28125 C 232.511719 180.464844 180.476562 232.503906 116.292969 232.503906 C 52.105469 232.503906 0.0703125 180.464844 0.0703125 116.28125 C 0.0703125 52.097656 52.105469 0.0585938 116.292969 0.0585938 C 180.476562 0.0585938 232.511719 52.097656 232.511719 116.28125 " clip-rule="nonzero"/></clipPath><clipPath id="b56792b1a3"><rect x="0" width="233" y="0" height="233"/></clipPath><clipPath id="2b37538776"><path d="M 86.445312 1.683594 L 723.554688 1.683594 L 723.554688 808.691406 L 86.445312 808.691406 Z M 86.445312 1.683594 " clip-rule="nonzero"/></clipPath><clipPath id="0f33e2e9ff"><path d="M 403.570312 508.53125 C 434.203125 642.910156 450.898438 846.164062 688.03125 802.195312 C 688.03125 802.195312 722.566406 801.410156 723.34375 766.886719 C 729.21875 503.417969 606.804688 432.515625 606.804688 432.515625 C 573.949219 410.007812 547.742188 412.296875 547.742188 412.296875 C 450.636719 417.28125 393.105469 409.027344 393.105469 409.027344 C 323.214844 405.429688 321.492188 337.414062 321.492188 337.414062 L 321.492188 37 C 319.015625 1.78125 286.195312 1.691406 286.195312 1.691406 L 121.761719 1.691406 C 121.761719 1.691406 90.597656 0.492188 86.453125 37 L 86.453125 766.898438 C 89.867188 805.347656 121.761719 802.207031 121.761719 802.207031 L 286.203125 802.207031 C 286.203125 802.207031 319.910156 801.507812 321.515625 766.898438 L 321.6875 505.21875 C 321.6875 505.21875 323.671875 469.199219 362.546875 467.507812 C 401.425781 465.816406 403.582031 508.542969 403.582031 508.542969 " clip-rule="nonzero"/></clipPath><clipPath id="797479f0de"><path d="M 0.445312 0.683594 L 637.554688 0.683594 L 637.554688 807.691406 L 0.445312 807.691406 Z M 0.445312 0.683594 " clip-rule="nonzero"/></clipPath><clipPath id="81efc926ba"><path d="M 317.570312 507.53125 C 348.203125 641.910156 364.898438 845.164062 602.03125 801.195312 C 602.03125 801.195312 636.566406 800.410156 637.34375 765.886719 C 643.21875 502.417969 520.804688 431.515625 520.804688 431.515625 C 487.949219 409.007812 461.742188 411.296875 461.742188 411.296875 C 364.636719 416.28125 307.105469 408.027344 307.105469 408.027344 C 237.214844 404.429688 235.492188 336.414062 235.492188 336.414062 L 235.492188 36 C 233.015625 0.78125 200.195312 0.691406 200.195312 0.691406 L 35.761719 0.691406 C 35.761719 0.691406 4.597656 -0.507812 0.453125 36 L 0.453125 765.898438 C 3.867188 804.347656 35.761719 801.207031 35.761719 801.207031 L 200.203125 801.207031 C 200.203125 801.207031 233.910156 800.507812 235.515625 765.898438 L 235.6875 504.21875 C 235.6875 504.21875 237.671875 468.199219 276.546875 466.507812 C 315.425781 464.816406 317.582031 507.542969 317.582031 507.542969 " clip-rule="nonzero"/></clipPath><clipPath id="9c9ee6f31c"><rect x="0" width="638" y="0" height="808"/></clipPath></defs><g clip-path="url(#7764170cbf)"><g clip-path="url(#803075eeaf)"><g transform="matrix(1, 0, 0, 1, 389, 112)"><g clip-path="url(#b56792b1a3)"><g clip-path="url(#3d96d81d16)"><g clip-path="url(#691561ba56)"><rect x="-567.2" width="1166.4" fill="#eddaba" height="1166.39999" y="-290.199998" fill-opacity="1"/></g></g></g></g></g></g><g clip-path="url(#2b37538776)"><g clip-path="url(#0f33e2e9ff)"><g transform="matrix(1, 0, 0, 1, 86, 1)"><g clip-path="url(#9c9ee6f31c)"><g clip-path="url(#797479f0de)"><g clip-path="url(#81efc926ba)"><rect x="-264.2" width="1166.4" fill="#f2572b" height="1166.39999" y="-179.199998" fill-opacity="1"/></g></g></g></g></g></g></svg>